<?xml version="1.0" encoding="utf-8"?>
<!-- Generator: Adobe Illustrator 16.0.0, SVG Export Plug-In . SVG Version: 6.00 Build 0)  -->
<!DOCTYPE svg PUBLIC "-//W3C//DTD SVG 1.1//EN" "http://www.w3.org/Graphics/SVG/1.1/DTD/svg11.dtd">
<svg version="1.1" id="Layer_1" xmlns="http://www.w3.org/2000/svg" xmlns:xlink="http://www.w3.org/1999/xlink" x="0px" y="0px"
	 width="80px" height="79.5px" viewBox="0 0 80 79.5" enable-background="new 0 0 80 79.5" xml:space="preserve">
<g opacity="0.5">
	<path fill="#FFFFFF" d="M6.337,45.35c-1.118-1.121-1.115-2.957,0.005-4.075l7.198-7.2c1.12-1.121,2.954-1.121,4.075-0.002
		l11.688,11.665c1.121,1.118,2.954,1.116,4.072-0.004l32.036-32.112c1.118-1.121,2.953-1.127,4.077-0.01l7.162,7.11
		c1.124,1.117,1.129,2.947,0.01,4.068L37.812,63.732c-1.118,1.121-3.329,2.039-4.913,2.039h-3.356c-1.584,0-3.794-0.921-4.912-2.041
		L6.337,45.35z"/>
</g>
</svg>
