<?xml version="1.0" encoding="utf-8"?>
<!-- Generator: Adobe Illustrator 16.0.0, SVG Export Plug-In . SVG Version: 6.00 Build 0)  -->
<!DOCTYPE svg PUBLIC "-//W3C//DTD SVG 1.1//EN" "http://www.w3.org/Graphics/SVG/1.1/DTD/svg11.dtd">
<svg version="1.1" id="Layer_1" xmlns="http://www.w3.org/2000/svg" xmlns:xlink="http://www.w3.org/1999/xlink" x="0px" y="0px"
	 width="79.5px" height="77px" viewBox="0 0 79.5 77" enable-background="new 0 0 79.5 77" xml:space="preserve">
<g opacity="0.5">
	<path fill="#FFFFFF" d="M74.083,17.95c2.34-2.34,2.34-6.169,0-8.509l-4.747-4.747c-2.34-2.34-6.169-2.34-8.509,0L44.174,21.348
		c-2.341,2.34-6.17,2.34-8.511,0L19.011,4.694c-2.34-2.34-6.17-2.34-8.51,0.001L5.755,9.44c-2.34,2.341-2.34,6.17,0,8.51
		l16.653,16.652c2.34,2.341,2.34,6.169,0,8.511L5.756,59.766c-2.34,2.34-2.34,6.17,0,8.51l4.746,4.746c2.34,2.34,6.169,2.34,8.509,0
		L35.663,56.37c2.341-2.34,6.17-2.34,8.511,0l16.651,16.651c2.341,2.34,6.171,2.34,8.51,0l4.747-4.746c2.34-2.34,2.34-6.17,0-8.51
		L57.43,43.113c-2.34-2.342-2.34-6.17,0-8.511L74.083,17.95z"/>
</g>
</svg>
