<?xml version="1.0" encoding="utf-8"?>
<!-- Generator: Adobe Illustrator 16.0.0, SVG Export Plug-In . SVG Version: 6.00 Build 0)  -->
<!DOCTYPE svg PUBLIC "-//W3C//DTD SVG 1.1//EN" "http://www.w3.org/Graphics/SVG/1.1/DTD/svg11.dtd">
<svg version="1.1" id="Layer_1" xmlns="http://www.w3.org/2000/svg" xmlns:xlink="http://www.w3.org/1999/xlink" x="0px" y="0px"
	 width="80.5px" height="71.836px" viewBox="0 0 80.5 71.836" enable-background="new 0 0 80.5 71.836" xml:space="preserve">
<g opacity="0.5">
	<path fill="#FFFFFF" d="M75.223,55.554L48.561,9.543c-4.148-7.161-10.945-7.165-15.104-0.01L6.703,55.564
		c-4.158,7.155-0.789,13.009,7.486,13.009h53.53C75.995,68.573,79.371,62.715,75.223,55.554z M41.253,60.471
		c-2.563,0-4.603-2.038-4.603-4.604c0-2.562,2.039-4.603,4.603-4.603c2.562,0,4.603,2.039,4.603,4.603
		C45.855,58.433,43.814,60.471,41.253,60.471z M44.516,48.353H37.99L35.794,21.79h10.918L44.516,48.353z"/>
</g>
</svg>
