<?xml version="1.0" encoding="utf-8"?>
<!-- Generator: Adobe Illustrator 16.0.0, SVG Export Plug-In . SVG Version: 6.00 Build 0)  -->
<!DOCTYPE svg PUBLIC "-//W3C//DTD SVG 1.1//EN" "http://www.w3.org/Graphics/SVG/1.1/DTD/svg11.dtd">
<svg version="1.1" id="Layer_1" xmlns="http://www.w3.org/2000/svg" xmlns:xlink="http://www.w3.org/1999/xlink" x="0px" y="0px"
	 width="213.133px" height="47.945px" viewBox="0 0 213.133 47.945" enable-background="new 0 0 213.133 47.945"
	 xml:space="preserve">
<g>
	<g>
		<linearGradient id="SVGID_1_" gradientUnits="userSpaceOnUse" x1="5.0996" y1="16.5171" x2="36.0745" y2="41.4838">
			<stop  offset="0" style="stop-color:#9BD9EF"/>
			<stop  offset="0.1386" style="stop-color:#75CAEA"/>
			<stop  offset="0.3413" style="stop-color:#43B7E4"/>
			<stop  offset="0.5189" style="stop-color:#1EA9E0"/>
			<stop  offset="0.6627" style="stop-color:#08A0DD"/>
			<stop  offset="0.7546" style="stop-color:#009DDC"/>
		</linearGradient>
		<path fill="url(#SVGID_1_)" d="M21.82,9.149C10.854,8.47,1.411,16.808,0.731,27.773c-0.598,9.645,5.78,18.104,14.784,20.47
			c-5.235-2.378-8.98-7.531-9.258-13.671c-0.394-8.711,6.352-16.093,15.062-16.486c8.712-0.394,16.093,6.351,16.485,15.062
			c0.153,3.364-0.763,6.527-2.443,9.169c2.91-3.224,4.792-7.414,5.083-12.083C41.125,19.268,32.785,9.827,21.82,9.149z"/>
		<linearGradient id="SVGID_2_" gradientUnits="userSpaceOnUse" x1="9.1982" y1="5.0684" x2="44.6165" y2="40.4866">
			<stop  offset="0" style="stop-color:#0059A5"/>
			<stop  offset="0.07" style="stop-color:#0057A1"/>
			<stop  offset="0.4725" style="stop-color:#004B8E"/>
			<stop  offset="0.7967" style="stop-color:#004381"/>
			<stop  offset="1" style="stop-color:#00407D"/>
		</linearGradient>
		<path fill="url(#SVGID_2_)" d="M41.724,22.392C39.97,10.404,29.637-0.704,18.591,1.141C12.674,2.549,7.064,6.515,3.34,12.414
			c-0.638,1.005-1.222,2.069-1.741,3.186c-0.007,0.019-0.018,0.036-0.022,0.055c-0.463,1.011-0.837,2.343-1.18,3.403
			c-0.006,0.041-0.018,0.079-0.026,0.121c2.972-7.949,9.954-11.771,16.854-12.164c0.016-0.002,1.392-0.036,1.396-0.03
			c3.494,0.034,6.893,0.944,9.662,2.639c8.524,5.232,15.343,18.927,8.109,30.8c-0.353,0.771-0.764,1.511-1.233,2.212
			C40.463,37.607,42.88,30.318,41.724,22.392z"/>
		<linearGradient id="SVGID_3_" gradientUnits="userSpaceOnUse" x1="20.6875" y1="0.4771" x2="50.2286" y2="55.9122">
			<stop  offset="0.15" style="stop-color:#009DDC"/>
			<stop  offset="0.2124" style="stop-color:#0093D2"/>
			<stop  offset="0.5832" style="stop-color:#0069AA"/>
			<stop  offset="0.8562" style="stop-color:#005395"/>
			<stop  offset="1" style="stop-color:#004B8D"/>
		</linearGradient>
		<path fill="url(#SVGID_3_)" d="M48.075,22.036C46.379,8.881,34.75-0.734,22.034,0.644c-0.04,0.007-0.081,0.008-0.121,0.015
			c-0.538,0.057-1.07,0.109-1.592,0.178c-0.465,0.069-0.925,0.16-1.391,0.261c10.197-1.529,21.224,9.613,22.778,21.629
			c0.991,7.671-1.347,14.69-6.359,19.611c-1.66,2.601-4.063,4.693-6.927,5.96C40.973,46.46,49.766,35.085,48.075,22.036z"/>
	</g>
	<g>
		<polygon fill="#004B8D" points="104.705,46.786 104.705,0 99.078,2.302 99.078,46.786 		"/>
		<path fill="#004B8D" d="M111.969,37.321c0,4.559,0,10.23,8.957,10.23c1.091,0,3.761-0.244,5.112-0.997v-5.095
			c-1.22,0.702-2.855,0.853-4.028,0.853c-4.41,0-4.41-3.739-4.41-7.039V21.616v-0.16h0.162h8.089v-4.858h-8.089H117.6v-0.162V8.12
			l-5.631,2.305v6.011v0.162h-0.161h-3.348v4.858h3.348h0.161v0.16V37.321z"/>
		<polygon fill="#004B8D" points="172.023,39.929 171.871,39.537 162.896,16.597 156.383,16.597 168.674,46.786 174.92,46.786 
			186.765,16.597 180.764,16.597 172.172,39.536 		"/>
		<polygon fill="#004B8D" points="76.437,2.354 71.045,2.354 51.468,46.782 58.373,46.782 62.738,35.868 62.779,35.767 
			62.783,35.767 64.88,30.61 64.877,30.61 65.077,30.124 65.926,28.037 65.937,28.037 73.31,10.133 73.46,9.77 73.608,10.134 
			81.835,30.387 81.925,30.61 81.686,30.61 68.104,30.61 65.979,35.767 83.967,35.767 84.076,35.767 84.116,35.868 88.545,46.782 
			95.451,46.782 		"/>
		<path fill="#004B8D" d="M205.021,28.109h-1.668c-7.585,0-16.627,1.81-16.627,10.429c0,2.753,1.075,5.068,3.11,6.695
			c1.87,1.495,4.468,2.318,7.313,2.318c4.858,0,8.102-1.626,10.52-5.27l0.294-0.443l0.001,0.532c0.004,1.474,0.065,2.96,0.183,4.415
			h4.985c-0.17-1.466-0.245-3.148-0.245-5.438V25.87c0-4.854-3.311-10.041-12.6-10.041c-4.507,0-8.963,1.65-11.935,4.414
			l3.368,3.495l0.186-0.142l0.19-0.145c2.021-1.547,4.111-3.148,8.25-3.148c5.013,0,7.295,3.352,7.295,6.465v0.801v0.38v0.16v4.095
			v0.161v0.132v1.688c0,4.102-2.278,8.892-8.7,8.892c-3.005,0-6.585-0.866-6.585-4.989c0-4.297,5.158-5.594,10.184-5.838
			c0,0,0.554-0.026,0.695-0.03c0.143-0.004,0.143-0.004,0.143-0.004L205.021,28.109z"/>
		<path fill="#004B8D" d="M157.444,31.754c0-4.232-1.197-8.099-3.37-10.883c-2.576-3.299-6.498-5.043-11.343-5.043
			c-4.358,0-8.335,1.612-11.194,4.538c-2.846,2.91-4.412,6.932-4.412,11.324c0,9.338,6.392,15.86,15.542,15.86
			c5.783,0,10.149-2.004,13.344-6.124l-4.249-3.25c-2.528,3.082-5.175,4.517-8.326,4.517c-3.88,0-7.875-1.977-9.517-5.421
			c-0.036-0.071-0.073-0.14-0.111-0.217c-2.287-4.742-0.354-9.974-0.354-9.974l0.01-0.002c1.038-3.51,4.521-6.777,9.143-6.777
			c5.348,0,8.646,3.287,8.82,8.791l0.006,0.166h-0.167h-13.954l-1.853,4.474h21.986V31.754z"/>
	</g>
</g>
</svg>
