<?xml version="1.0" encoding="utf-8"?>
<!-- Generator: Adobe Illustrator 16.0.0, SVG Export Plug-In . SVG Version: 6.00 Build 0)  -->
<!DOCTYPE svg PUBLIC "-//W3C//DTD SVG 1.1//EN" "http://www.w3.org/Graphics/SVG/1.1/DTD/svg11.dtd">
<svg version="1.1" id="Layer_1" xmlns="http://www.w3.org/2000/svg" xmlns:xlink="http://www.w3.org/1999/xlink" x="0px" y="0px"
	 width="159.328px" height="90.473px" viewBox="0 0 159.328 90.473" enable-background="new 0 0 159.328 90.473"
	 xml:space="preserve">
<g>
	<g>
		<linearGradient id="SVGID_1_" gradientUnits="userSpaceOnUse" x1="72.6504" y1="18.0859" x2="102.9342" y2="42.4955">
			<stop  offset="0" style="stop-color:#9BD9EF"/>
			<stop  offset="0.1386" style="stop-color:#75CAEA"/>
			<stop  offset="0.3413" style="stop-color:#43B7E4"/>
			<stop  offset="0.5189" style="stop-color:#1EA9E0"/>
			<stop  offset="0.6627" style="stop-color:#08A0DD"/>
			<stop  offset="0.7546" style="stop-color:#009DDC"/>
		</linearGradient>
		<path fill="url(#SVGID_1_)" d="M88.998,10.881c-10.722-0.664-19.953,7.488-20.616,18.209c-0.584,9.428,5.65,17.699,14.452,20.012
			c-5.117-2.324-8.78-7.364-9.05-13.365c-0.385-8.517,6.208-15.734,14.726-16.119c8.517-0.386,15.732,6.208,16.117,14.726
			c0.149,3.29-0.746,6.383-2.389,8.966c2.845-3.152,4.685-7.249,4.97-11.814C107.872,20.775,99.718,11.544,88.998,10.881z"/>
		<linearGradient id="SVGID_2_" gradientUnits="userSpaceOnUse" x1="76.6582" y1="6.8916" x2="111.286" y2="41.5194">
			<stop  offset="0" style="stop-color:#0059A5"/>
			<stop  offset="0.07" style="stop-color:#0057A1"/>
			<stop  offset="0.4725" style="stop-color:#004B8E"/>
			<stop  offset="0.7967" style="stop-color:#004381"/>
			<stop  offset="1" style="stop-color:#00407D"/>
		</linearGradient>
		<path fill="url(#SVGID_2_)" d="M108.457,23.829c-1.714-11.721-11.816-22.58-22.615-20.776C80.056,4.429,74.571,8.307,70.93,14.074
			c-0.622,0.981-1.194,2.022-1.701,3.114c-0.009,0.018-0.018,0.035-0.022,0.054c-0.453,0.987-0.819,2.29-1.155,3.327
			c-0.004,0.04-0.017,0.077-0.024,0.117c2.905-7.771,9.731-11.508,16.479-11.892c0.015-0.002,1.359-0.036,1.364-0.029
			c3.416,0.033,6.739,0.923,9.447,2.58c8.333,5.115,15,18.503,7.929,30.111c-0.346,0.754-0.748,1.479-1.207,2.163
			C107.225,38.705,109.588,31.578,108.457,23.829z"/>
		<linearGradient id="SVGID_3_" gradientUnits="userSpaceOnUse" x1="87.8906" y1="2.4019" x2="116.7722" y2="56.5995">
			<stop  offset="0.15" style="stop-color:#009DDC"/>
			<stop  offset="0.2124" style="stop-color:#0093D2"/>
			<stop  offset="0.5832" style="stop-color:#0069AA"/>
			<stop  offset="0.8562" style="stop-color:#005395"/>
			<stop  offset="1" style="stop-color:#004B8D"/>
		</linearGradient>
		<path fill="url(#SVGID_3_)" d="M114.668,23.481c-1.66-12.861-13.029-22.263-25.461-20.915c-0.039,0.007-0.078,0.008-0.118,0.015
			c-0.525,0.056-1.046,0.107-1.556,0.174c-0.454,0.067-0.905,0.157-1.36,0.256c9.971-1.495,20.75,9.399,22.271,21.147
			c0.968,7.5-1.317,14.363-6.219,19.173c-1.623,2.543-3.973,4.588-6.771,5.827C107.724,47.36,116.319,36.24,114.668,23.481z"/>
	</g>
	<g>
		<polygon fill="#004B8D" points="52.467,89.719 52.467,43.607 46.922,45.876 46.922,89.719 		"/>
		<path fill="#004B8D" d="M59.626,80.39c0,4.492,0,10.083,8.827,10.083c1.076,0,3.708-0.241,5.039-0.983v-5.02
			c-1.202,0.691-2.814,0.839-3.97,0.839c-4.347,0-4.347-3.686-4.347-6.937v-13.46v-0.158h0.159h7.973v-4.789h-7.973h-0.159v-0.159
			V51.61l-5.549,2.271v5.924v0.159h-0.159h-3.3v4.789h3.3h0.159v0.158V80.39z"/>
		<polygon fill="#004B8D" points="118.813,82.96 118.662,82.573 109.817,59.965 103.398,59.965 115.512,89.719 121.669,89.719 
			133.342,59.965 127.428,59.965 118.96,82.572 		"/>
		<polygon fill="#004B8D" points="24.608,45.927 19.294,45.927 0,89.714 6.806,89.714 11.108,78.958 11.148,78.858 11.152,78.858 
			13.217,73.775 13.215,73.775 13.412,73.296 14.248,71.239 14.259,71.239 21.526,53.595 21.674,53.236 21.82,53.596 29.928,73.557 
			30.017,73.775 29.781,73.775 16.395,73.775 14.302,78.858 32.029,78.858 32.137,78.858 32.177,78.958 36.54,89.714 43.347,89.714 
					"/>
		<path fill="#004B8D" d="M151.334,71.311h-1.643c-7.476,0-16.387,1.784-16.387,10.278c0,2.713,1.059,4.994,3.064,6.599
			c1.843,1.474,4.403,2.285,7.208,2.285c4.788,0,7.984-1.603,10.368-5.193l0.289-0.438l0.002,0.524
			c0.003,1.453,0.063,2.918,0.18,4.353h4.912c-0.167-1.446-0.241-3.104-0.241-5.361V69.104c0-4.784-3.263-9.896-12.418-9.896
			c-4.441,0-8.833,1.626-11.763,4.35l3.32,3.445l0.184-0.14l0.187-0.143c1.993-1.524,4.053-3.103,8.132-3.103
			c4.939,0,7.189,3.303,7.189,6.371v0.789v0.374v0.158v4.036v0.158v0.131V77.3c0,4.042-2.246,8.763-8.574,8.763
			c-2.961,0-6.491-0.854-6.491-4.917c0-4.235,5.084-5.514,10.036-5.754c0,0,0.547-0.026,0.687-0.029
			c0.14-0.005,0.14-0.005,0.14-0.005L151.334,71.311z"/>
		<path fill="#004B8D" d="M104.444,74.904c0-4.173-1.18-7.982-3.321-10.726c-2.539-3.252-6.404-4.971-11.179-4.971
			c-4.296,0-8.214,1.589-11.033,4.473c-2.804,2.867-4.348,6.831-4.348,11.16c0,9.203,6.299,15.632,15.318,15.632
			c5.699,0,10.002-1.975,13.149-6.036l-4.187-3.203c-2.491,3.037-5.101,4.452-8.206,4.452c-3.824,0-7.762-1.948-9.379-5.343
			c-0.037-0.071-0.073-0.138-0.109-0.214c-2.254-4.674-0.35-9.83-0.35-9.83l0.01-0.001c1.022-3.459,4.454-6.68,9.009-6.68
			c5.271,0,8.521,3.239,8.693,8.663l0.005,0.165h-0.163H84.602l-1.825,4.408h21.668V74.904z"/>
	</g>
</g>
</svg>
